<?xml version="1.0" encoding="utf-8"?>
<!-- Generator: Adobe Illustrator 24.1.2, SVG Export Plug-In . SVG Version: 6.00 Build 0)  -->
<svg version="1.1" id="Layer_1" xmlns="http://www.w3.org/2000/svg" xmlns:xlink="http://www.w3.org/1999/xlink" x="0px" y="0px"
	 viewBox="0 0 150 150" style="enable-background:new 0 0 150 150;" xml:space="preserve">
<style type="text/css">
	.st0{fill:#EC1746;}
</style>
<g transform="translate(0.000000,150.000000) scale(0.100000,-0.100000)">
	<path class="st0" d="M628,1480c-220-40-429-190-525-375C34,971,15,895,15,750s19-221,88-355c57-111,181-235,292-292
		c134-69,210-88,355-88s221,19,355,88c111,57,235,181,292,292c69,134,88,210,88,355c0,103-4,138-24,200c-78,253-256,432-506,510
		C876,1484,706,1495,628,1480z M951,1103c86-40,132-82,159-145c19-44,22-64,17-120c-6-65-5-69,24-97c38-38,40-91,4-126
		c-13-14-31-25-39-25s-29-27-47-61c-36-68-98-127-167-161c-40-20-63-23-152-23c-101,0-108,1-168,34c-70,38-120,90-153,159
		c-15,30-31,47-51,54c-60,21-76,102-29,149c28,27,29,33,28,111c-1,70,2,90,21,123c27,47,73,82,121,91c19,4,64,23,100,42
		c65,34,68,34,167,30C872,1134,896,1129,951,1103z"/>
	<path class="st0" d="M660,1080c-24-12-51-27-60-34c-8-6-37-18-65-25c-86-21-115-64-115-168c0-72,13-112,23-74c3,13,21,28,44,37
		c50,21,91,60,98,95c10,43,25,45,52,10c50-63,197-111,343-111c69,0,70,0,84-32c14-33,14-33,16,37c3,94,1,104-23,147
		c-40,73-153,127-277,134C718,1100,697,1097,660,1080z"/>
	<path class="st0" d="M600,841c-11-16-42-40-68-53c-47-22-49-25-68-94c-18-64-19-74-6-114c22-65,112-152,185-179
		c150-55,313,9,385,150l34,66l-22,71c-11,40-22,72-24,72s-50,5-107,11c-115,11-208,39-256,75l-32,24L600,841z M645,715
		c14-13,25-31,25-40c0-21-36-55-60-55c-25,0-60,34-60,58c0,30,29,58,63,61C617,740,632,729,645,715z M930,720c37-37,14-100-36-100
		c-52,0-75,74-32,104C892,745,906,744,930,720z M697,540c47-25,59-25,106,0c39,21,57,19,57-6c0-24-61-54-110-54c-67,0-131,45-103,73
		C656,562,655,563,697,540z"/>
	<path class="st0" d="M600,680c0-5,5-10,10-10c6,0,10,5,10,10c0,6-4,10-10,10C605,690,600,686,600,680z"/>
	<path class="st0" d="M880,680c0-5,7-10,16-10c8,0,12,5,9,10c-3,6-10,10-16,10C884,690,880,686,880,680z"/>
	<path class="st0" d="M372,703c-10-19-10-27,0-45l13-23l3,23c2,12,2,32,0,45l-3,22L372,703z"/>
	<path class="st0" d="M1110,675c0-19,2-35,5-35c10,0,24,40,19,54C1123,722,1110,711,1110,675z"/>
</g>
</svg>
