<?xml version="1.0" encoding="utf-8"?>
<!-- Generator: Adobe Illustrator 24.1.2, SVG Export Plug-In . SVG Version: 6.00 Build 0)  -->
<svg version="1.1" id="Layer_1" xmlns="http://www.w3.org/2000/svg" xmlns:xlink="http://www.w3.org/1999/xlink" x="0px" y="0px"
	 viewBox="0 0 150 150" style="enable-background:new 0 0 150 150;" xml:space="preserve">
<style type="text/css">
	.st0{fill:#EC1746;}
</style>
<g transform="translate(0.000000,150.000000) scale(0.100000,-0.100000)">
	<path class="st0" d="M620,1483c-106-17-254-87-343-161C113,1186,23,1005,13,789C6,643,24,550,85,425c76-157,183-264,340-340
		c112-54,205-75,333-75c330,0,612,214,713,540c34,108,34,292,0,400c-81,261-281,455-539,521C861,1489,695,1496,620,1483z M861,1144
		c295-86,392-462,175-680C835,264,505,320,379,576c-77,157-36,367,95,481C578,1149,729,1183,861,1144z"/>
	<path class="st0" d="M636,1060c-176-69-260-251-195-424c41-110,138-187,262-209c55-9,71-8,134,11c163,50,264,212,232,374
		C1030,1009,818,1131,636,1060z M778,998c8-8,12-50,12-122V766l56-57c60-60,66-91,22-105c-16-5-35,8-89,62l-69,68v132
		c0,72,3,134,7,137C728,1014,765,1011,778,998z"/>
</g>
</svg>
