<?xml version="1.0" encoding="utf-8"?>
<!-- Generator: Adobe Illustrator 24.1.2, SVG Export Plug-In . SVG Version: 6.00 Build 0)  -->
<svg version="1.1" id="Layer_1" xmlns="http://www.w3.org/2000/svg" xmlns:xlink="http://www.w3.org/1999/xlink" x="0px" y="0px"
	 viewBox="0 0 150 150" style="enable-background:new 0 0 150 150;" xml:space="preserve">
<style type="text/css">
	.st0{fill:#EC1746;}
</style>
<g transform="translate(0.000000,150.000000) scale(0.100000,-0.100000)">
	<path class="st0" d="M595,1475c-146-31-275-106-383-220c-79-83-128-164-169-280c-25-73-27-92-27-225s2-152,27-225
		c45-127,91-201,186-295C376,85,519,21,716,12c141-6,235,13,361,74c194,93,328,251,394,464c34,108,34,292,0,400
		c-46,148-129,276-241,369c-75,63-221,134-317,155C827,1493,679,1494,595,1475z M578,1113c3-23,5-23,178-23h174v26c0,22,4,25,28,22
		c19-2,28-9,30-24c2-17,12-23,45-28c25-4,53-18,69-33l28-27V720V414l-31-30l-30-29l-299-3c-248-2-305,0-335,12c-61,26-65,48-65,355
		c0,148,4,281,9,294c15,40,50,66,97,73c32,5,44,11,44,23c0,24,10,32,35,29C567,1136,576,1126,578,1113z"/>
	<path class="st0" d="M452,1008c-17-17-17-559,0-576s589-17,606,0s17,559,0,576c-7,7-25,12-40,12c-21,0-28-5-28-19c0-10-6-24-14-30
		c-20-17-46-3-46,25v24H755H580v-24c0-28-26-42-46-25c-8,6-14,20-14,30c0,14-7,19-28,19C477,1020,459,1015,452,1008z M621,859
		c9-18,7-25-10-43c-17-16-25-18-39-10c-19,12-27,37-18,60C562,888,608,883,621,859z M781,859c9-18,7-25-10-43c-17-16-25-18-39-10
		c-19,12-27,37-18,60C722,888,768,883,781,859z M941,859c9-18,7-25-10-43c-17-16-25-18-39-10c-19,12-27,37-18,60
		C882,888,928,883,941,859z M614,724c19-19,20-25,3-48c-19-26-61-18-65,12C545,732,584,755,614,724z M774,724c19-19,20-25,3-48
		c-19-26-61-18-65,12C705,732,744,755,774,724z M934,724c19-19,20-25,3-48c-19-26-61-18-65,12C865,732,904,755,934,724z M620,571
		c5-11,7-26,4-35c-8-21-42-30-59-16c-15,13-20,51-8,63C570,597,610,589,620,571z M780,571c5-11,7-26,4-35c-8-21-42-30-59-16
		c-15,13-20,51-8,63C730,597,770,589,780,571z M940,571c5-11,7-26,4-35c-8-21-42-30-59-16c-15,13-20,51-8,63
		C890,597,930,589,940,571z"/>
</g>
</svg>
