<svg xmlns="http://www.w3.org/2000/svg" xmlns:xlink="http://www.w3.org/1999/xlink" width="160" height="160" viewBox="0 0 160 160">
  <defs>
    <clipPath id="clip-path">
      <rect id="Rectangle_1665" data-name="Rectangle 1665" width="43.274" height="43.262" fill="#fff"/>
    </clipPath>
    <clipPath id="clip-path-2">
      <rect id="Rectangle_1666" data-name="Rectangle 1666" width="97.972" height="77.428" fill="#fff"/>
    </clipPath>
  </defs>
  <g id="Visual_and_" data-name="Visual and " transform="translate(1277 -2712)">
    <g id="Group_3170" data-name="Group 3170" transform="translate(-891 304)">
      <circle id="Ellipse_36" data-name="Ellipse 36" cx="80" cy="80" r="80" transform="translate(-386 2408)" fill="#ed1846"/>
    </g>
    <g id="Group_3171" data-name="Group 3171" transform="translate(-2842.752 103.843)">
      <g id="Group_3070" data-name="Group 3070" transform="translate(1612.1 2685.872)">
        <g id="Group_3069" data-name="Group 3069" transform="translate(12)" clip-path="url(#clip-path)">
          <path id="Path_5929" data-name="Path 5929" d="M43.275,104.059c-.85.948-1.632,1.971-2.563,2.832a30.476,30.476,0,0,1-12.925,7.2,23.612,23.612,0,0,1-14.166-.573A30.722,30.722,0,0,1,.881,105.21c-.162-.176-.316-.359-.47-.543a1.3,1.3,0,0,1,0-1.894A26.129,26.129,0,0,1,4.341,99.01a30.68,30.68,0,0,1,11.588-5.765,23.894,23.894,0,0,1,14.824,1.079,30.449,30.449,0,0,1,11.993,8.312,8.563,8.563,0,0,1,.529.747Zm-13-.335a8.636,8.636,0,1,0-8.65,8.631,8.622,8.622,0,0,0,8.65-8.631m10.007,0A30.347,30.347,0,0,0,30.643,97c2.922,4.507,2.919,8.936,0,13.445a30.82,30.82,0,0,0,9.639-6.724m-37.288,0a30.327,30.327,0,0,0,9.639,6.715c-2.917-4.507-2.921-8.935,0-13.435a30.756,30.756,0,0,0-9.637,6.72" transform="translate(0 -82.089)" fill="#fff"/>
          <path id="Path_5930" data-name="Path 5930" d="M181.937,0a1.544,1.544,0,0,1,.943,1.658c-.046.827-.006,1.659-.012,2.488a1.272,1.272,0,1,1-2.538,0c0-.83.037-1.662-.012-2.488A1.545,1.545,0,0,1,181.261,0Z" transform="translate(-159.96)" fill="#fff"/>
          <path id="Path_5931" data-name="Path 5931" d="M92.288,322.07a4.35,4.35,0,0,1,.241-.661q.788-1.419,1.606-2.822a1.273,1.273,0,1,1,2.207,1.258q-.8,1.434-1.63,2.856a1.243,1.243,0,0,1-1.474.612,1.327,1.327,0,0,1-.949-1.243" transform="translate(-81.871 -281.98)" fill="#fff"/>
          <path id="Path_5932" data-name="Path 5932" d="M254.852,318a1.148,1.148,0,0,1,.863.616c.581,1,1.159,1.992,1.712,3a1.267,1.267,0,0,1-2.213,1.233c-.578-.98-1.149-1.966-1.691-2.967A1.291,1.291,0,0,1,254.852,318" transform="translate(-224.761 -282.104)" fill="#fff"/>
          <path id="Path_5933" data-name="Path 5933" d="M95.572,22.038a1.192,1.192,0,0,1-1.085-.613c-.581-.995-1.158-1.993-1.713-3a1.263,1.263,0,0,1,.484-1.719,1.239,1.239,0,0,1,1.7.441c.6,1,1.185,2.01,1.733,3.039a1.248,1.248,0,0,1-1.117,1.854" transform="translate(-82.159 -14.668)" fill="#fff"/>
          <path id="Path_5934" data-name="Path 5934" d="M257.579,17.856a3.283,3.283,0,0,1-.2.632c-.552,1-1.111,1.988-1.69,2.967a1.266,1.266,0,0,1-2.212-1.23c.553-1.011,1.127-2.011,1.712-3a1.231,1.231,0,0,1,1.454-.569,1.323,1.323,0,0,1,.938,1.2" transform="translate(-224.723 -14.722)" fill="#fff"/>
          <path id="Path_5935" data-name="Path 5935" d="M180.436,337.236c0-.478-.007-.956,0-1.434a1.267,1.267,0,1,1,2.534-.02q.019,1.476,0,2.952a1.268,1.268,0,1,1-2.535-.022c-.007-.492,0-.984,0-1.476" transform="translate(-160.067 -296.762)" fill="#fff"/>
          <path id="Path_5936" data-name="Path 5936" d="M157.755,162.024a4.318,4.318,0,1,1,4.33-4.307,4.311,4.311,0,0,1-4.33,4.307m.014-6.095a1.777,1.777,0,1,0,1.774,1.769,1.773,1.773,0,0,0-1.774-1.769" transform="translate(-136.127 -136.074)" fill="#fff"/>
        </g>
      </g>
      <g id="Group_3072" data-name="Group 3072" transform="translate(1596.752 2647.157)">
        <g id="Group_3071" data-name="Group 3071" clip-path="url(#clip-path-2)">
          <path id="Path_5937" data-name="Path 5937" d="M93.862,47.4C93.464,25.157,74.825,4.249,49.4,4.031,24.081,3.815,4.7,24.372,4.127,47.3c.4-.281.736-.509,1.065-.745a12.076,12.076,0,0,1,8.491-2.306,6.54,6.54,0,0,1,6.028,6.491q.113,10.059,0,20.119a6.592,6.592,0,0,1-6.5,6.516A12.267,12.267,0,0,1,.091,65.124c-.061-6.936-.277-13.907.292-20.8,1.123-13.6,7.289-24.8,17.873-33.362a48.863,48.863,0,0,1,76.053,19.47,46.954,46.954,0,0,1,3.631,18.1c.018,5.615.068,11.231-.017,16.844A12.363,12.363,0,0,1,84.342,77.367,6.578,6.578,0,0,1,78.3,71.007q-.1-10.176,0-20.353a6.562,6.562,0,0,1,6.118-6.4A12.548,12.548,0,0,1,93.862,47.4M82.276,60.669c0,3.233-.017,6.467.006,9.7a2.745,2.745,0,0,0,3.062,3.016,8.344,8.344,0,0,0,8.628-8.5c.028-2.688.022-5.376,0-8.064A8.354,8.354,0,0,0,85.7,48.184c-2.268-.115-3.417.965-3.425,3.252-.01,3.078,0,6.155,0,9.233m-66.51.179c0-3.194.016-6.389-.006-9.584a2.741,2.741,0,0,0-3.032-3.048,8.34,8.34,0,0,0-8.657,8.469c-.03,2.727-.025,5.454,0,8.181a8.347,8.347,0,0,0,8.352,8.548c2.218.072,3.333-.988,3.341-3.217.012-3.117,0-6.233,0-9.35" transform="translate(0 0)" fill="#fff"/>
        </g>
      </g>
    </g>
  </g>
</svg>
